ffmpeg started on 2025-06-06 at 17:26:04
Report written to "D:\Convert\FFMetrics\reports\ssim_report-6.txt"
Log level: 32
Command line:
ffmpeg -hide_banner -nostdin -i "G:\\\xc0\xed\xe8\xec\xe5\\\xce\xed\xe3\xee\xe8\xed\xe3\xe8\\!_36_\xce\xf1\xe5\xed\xfc_2024\\DreamCast\\\xcf\xeb\xee\xf5\xe0\xff \xef\xee\xe5\xe7\xe4\xea\xe0\\[DC] Acro Trip - 08_Telegram_HEVC.mkv" -i "G:\\\xc0\xed\xe8\xec\xe5\\\xce\xed\xe3\xee\xe8\xed\xe3\xe8\\!_36_\xce\xf1\xe5\xed\xfc_2024\\DreamCast\\\xcf\xeb\xee\xf5\xe0\xff \xef\xee\xe5\xe7\xe4\xea\xe0\\[DC] Acro Trip - 08_Telegram.mp4" -lavfi "[0:v]settb=AVTB,setpts=PTS-STARTPTS,format=pix_fmts=yuv420p10,fps=24000/1001,scale=1920:1080:flags=bicubic[main];[1:v]settb=AVTB,setpts=PTS-STARTPTS,format=pix_fmts=yuv420p,fps=24000/1001,scale=1920:1080:flags=bicubic[ref];[main][ref]ssim=eof_action=endall:stats_file='D\\:/Convert/FFMetrics/logs/ssim_logfile-6.txt'" -f null -
Input #0, matroska,webm, from 'G:\Аниме\Онгоинги\!_36_Осень_2024\DreamCast\Плохая поездка\[DC] Acro Trip - 08_Telegram_HEVC.mkv':
  Metadata:
    COMPATIBLE_BRANDS: isomiso2avc1mp41
    MAJOR_BRAND     : isom
    MINOR_VERSION   : 512
    ENCODER         : Lavf61.7.100
  Duration: 00:23:46.65, start: -0.021000, bitrate: 1046 kb/s
  Stream #0:0: Video: hevc (Main 10), yuv420p10le(tv, bt709, progressive), 1920x1080 [SAR 1:1 DAR 16:9], 23.98 fps, 23.98 tbr, 1k tbn (default)
      Metadata:
        HANDLER_NAME    : VideoHandler
        VENDOR_ID       : [0][0][0][0]
        ENCODER         : Lavc61.19.100 libx265
        BPS             : 849112
        DURATION        : 00:23:46.508708333
        NUMBER_OF_FRAMES: 34202
        NUMBER_OF_BYTES : 151408138
        _STATISTICS_WRITING_APP: mkvpropedit v66.0.0 ('Josie') 64-bit
        _STATISTICS_WRITING_DATE_UTC: 2025-06-02 12:55:07
        _STATISTICS_TAGS: BPS DURATION NUMBER_OF_FRAMES NUMBER_OF_BYTES
  Stream #0:1: Audio: aac (LC), 48000 Hz, stereo, fltp (default)
      Metadata:
        HANDLER_NAME    : SoundHandler
        VENDOR_ID       : [0][0][0][0]
        ENCODER         : Lavc61.19.100 aac
        BPS             : 193699
        DURATION        : 00:23:46.645000000
        NUMBER_OF_FRAMES: 66875
        NUMBER_OF_BYTES : 34542622
        _STATISTICS_WRITING_APP: mkvpropedit v66.0.0 ('Josie') 64-bit
        _STATISTICS_WRITING_DATE_UTC: 2025-06-02 12:55:07
        _STATISTICS_TAGS: BPS DURATION NUMBER_OF_FRAMES NUMBER_OF_BYTES
Input #1, mov,mp4,m4a,3gp,3g2,mj2, from 'G:\Аниме\Онгоинги\!_36_Осень_2024\DreamCast\Плохая поездка\[DC] Acro Trip - 08_Telegram.mp4':
  Metadata:
    major_brand     : isom
    minor_version   : 512
    compatible_brands: isomiso2avc1mp41
    encoder         : Lavf60.16.100
  Duration: 00:23:46.62, start: 0.000000, bitrate: 3863 kb/s
  Stream #1:0[0x1](und): Video: h264 (High) (avc1 / 0x31637661), yuv420p(tv, bt709, progressive), 1920x1080 [SAR 1:1 DAR 16:9], 3715 kb/s, 23.98 fps, 23.98 tbr, 24k tbn (default)
      Metadata:
        handler_name    : VideoHandler
        vendor_id       : [0][0][0][0]
        encoder         : Lavc60.31.102 h264_qsv
  Stream #1:1[0x2](und): Audio: aac (HE-AACv2) (mp4a / 0x6134706D), 48000 Hz, stereo, fltp, 144 kb/s (default)
      Metadata:
        handler_name    : SoundHandler
        vendor_id       : [0][0][0][0]
Stream mapping:
  Stream #0:0 (hevc) -> settb:default
  Stream #1:0 (h264) -> settb:default
  ssim:default -> Stream #0:0 (wrapped_avframe)
  Stream #0:1 -> #0:1 (aac (native) -> pcm_s16le (native))
Output #0, null, to 'pipe:':
  Metadata:
    COMPATIBLE_BRANDS: isomiso2avc1mp41
    MAJOR_BRAND     : isom
    MINOR_VERSION   : 512
    encoder         : Lavf61.7.100
  Stream #0:0: Video: wrapped_avframe, yuv420p10le(tv, bt709, progressive), 1920x1080 [SAR 1:1 DAR 16:9], q=2-31, 200 kb/s, 23.98 fps, 23.98 tbn
      Metadata:
        encoder         : Lavc61.19.100 wrapped_avframe
  Stream #0:1: Audio: pcm_s16le, 48000 Hz, stereo, s16, 1536 kb/s (default)
      Metadata:
        HANDLER_NAME    : SoundHandler
        VENDOR_ID       : [0][0][0][0]
        _STATISTICS_TAGS: BPS DURATION NUMBER_OF_FRAMES NUMBER_OF_BYTES
        BPS             : 193699
        DURATION        : 00:23:46.645000000
        NUMBER_OF_FRAMES: 66875
        NUMBER_OF_BYTES : 34542622
        _STATISTICS_WRITING_APP: mkvpropedit v66.0.0 ('Josie') 64-bit
        _STATISTICS_WRITING_DATE_UTC: 2025-06-02 12:55:07
        encoder         : Lavc61.19.100 pcm_s16le
frame=  184 fps=0.0 q=-0.0 size=N/A time=00:00:07.67 bitrate=N/A speed=14.8x    frame=  447 fps=435 q=-0.0 size=N/A time=00:00:18.64 bitrate=N/A speed=18.1x    frame=  727 fps=468 q=-0.0 size=N/A time=00:00:30.32 bitrate=N/A speed=19.5x    frame=  998 fps=484 q=-0.0 size=N/A time=00:00:41.62 bitrate=N/A speed=20.2x    frame= 1275 fps=494 q=-0.0 size=N/A time=00:00:53.17 bitrate=N/A speed=20.6x    frame= 1486 fps=481 q=-0.0 size=N/A time=00:01:01.97 bitrate=N/A speed=20.1x    frame= 1720 fps=476 q=-0.0 size=N/A time=00:01:11.73 bitrate=N/A speed=19.9x    frame= 1977 fps=479 q=-0.0 size=N/A time=00:01:22.45 bitrate=N/A speed=  20x    frame= 2237 fps=482 q=-0.0 size=N/A time=00:01:33.30 bitrate=N/A speed=20.1x    frame= 2530 fps=490 q=-0.0 size=N/A time=00:01:45.52 bitrate=N/A speed=20.4x    frame= 2779 fps=490 q=-0.0 size=N/A time=00:01:55.90 bitrate=N/A speed=20.4x    frame= 3025 fps=489 q=-0.0 size=N/A time=00:02:06.16 bitrate=N/A speed=20.4x    frame= 3295 fps=491 q=-0.0 size=N/A time=00:02:17.42 bitrate=N/A speed=20.5x    frame= 3480 fps=482 q=-0.0 size=N/A time=00:02:25.14 bitrate=N/A speed=20.1x    frame= 3693 fps=477 q=-0.0 size=N/A time=00:02:34.02 bitrate=N/A speed=19.9x    frame= 3897 fps=473 q=-0.0 size=N/A time=00:02:42.53 bitrate=N/A speed=19.7x    frame= 4095 fps=467 q=-0.0 size=N/A time=00:02:50.79 bitrate=N/A speed=19.5x    frame= 4282 fps=461 q=-0.0 size=N/A time=00:02:58.59 bitrate=N/A speed=19.2x    frame= 4481 fps=457 q=-0.0 size=N/A time=00:03:06.89 bitrate=N/A speed=19.1x    frame= 4669 fps=453 q=-0.0 size=N/A time=00:03:14.73 bitrate=N/A speed=18.9x    frame= 4807 fps=444 q=-0.0 size=N/A time=00:03:20.49 bitrate=N/A speed=18.5x    frame= 4977 fps=439 q=-0.0 size=N/A time=00:03:27.58 bitrate=N/A speed=18.3x    frame= 5132 fps=433 q=-0.0 size=N/A time=00:03:34.04 bitrate=N/A speed=  18x    frame= 5296 fps=428 q=-0.0 size=N/A time=00:03:40.88 bitrate=N/A speed=17.8x    frame= 5489 fps=426 q=-0.0 size=N/A time=00:03:48.93 bitrate=N/A speed=17.8x    frame= 5748 fps=429 q=-0.0 size=N/A time=00:03:59.73 bitrate=N/A speed=17.9x    frame= 6003 fps=431 q=-0.0 size=N/A time=00:04:10.37 bitrate=N/A speed=  18x    frame= 6263 fps=434 q=-0.0 size=N/A time=00:04:21.21 bitrate=N/A speed=18.1x    frame= 6529 fps=436 q=-0.0 size=N/A time=00:04:32.31 bitrate=N/A speed=18.2x    frame= 6780 fps=438 q=-0.0 size=N/A time=00:04:42.78 bitrate=N/A speed=18.3x    frame= 7051 fps=441 q=-0.0 size=N/A time=00:04:54.08 bitrate=N/A speed=18.4x    frame= 7292 fps=442 q=-0.0 size=N/A time=00:05:04.13 bitrate=N/A speed=18.4x    frame= 7523 fps=442 q=-0.0 size=N/A time=00:05:13.77 bitrate=N/A speed=18.4x    frame= 7781 fps=444 q=-0.0 size=N/A time=00:05:24.53 bitrate=N/A speed=18.5x    frame= 8042 fps=446 q=-0.0 size=N/A time=00:05:35.41 bitrate=N/A speed=18.6x    frame= 8299 fps=447 q=-0.0 size=N/A time=00:05:46.13 bitrate=N/A speed=18.6x    frame= 8564 fps=449 q=-0.0 size=N/A time=00:05:57.19 bitrate=N/A speed=18.7x    frame= 8813 fps=450 q=-0.0 size=N/A time=00:06:07.57 bitrate=N/A speed=18.8x    frame= 9084 fps=452 q=-0.0 size=N/A time=00:06:18.87 bitrate=N/A speed=18.8x    frame= 9362 fps=454 q=-0.0 size=N/A time=00:06:30.47 bitrate=N/A speed=18.9x    frame= 9640 fps=456 q=-0.0 size=N/A time=00:06:42.06 bitrate=N/A speed=  19x    frame= 9896 fps=457 q=-0.0 size=N/A time=00:06:52.74 bitrate=N/A speed=19.1x    frame=10169 fps=459 q=-0.0 size=N/A time=00:07:04.13 bitrate=N/A speed=19.1x    frame=10442 fps=460 q=-0.0 size=N/A time=00:07:15.51 bitrate=N/A speed=19.2x    frame=10619 fps=458 q=-0.0 size=N/A time=00:07:22.90 bitrate=N/A speed=19.1x    frame=10842 fps=457 q=-0.0 size=N/A time=00:07:32.20 bitrate=N/A speed=19.1x    frame=11066 fps=456 q=-0.0 size=N/A time=00:07:41.54 bitrate=N/A speed=  19x    frame=11278 fps=455 q=-0.0 size=N/A time=00:07:50.38 bitrate=N/A speed=  19x    frame=11524 fps=456 q=-0.0 size=N/A time=00:08:00.64 bitrate=N/A speed=  19x    frame=11801 fps=457 q=-0.0 size=N/A time=00:08:12.20 bitrate=N/A speed=19.1x    frame=12063 fps=458 q=-0.0 size=N/A time=00:08:23.12 bitrate=N/A speed=19.1x    frame=12302 fps=458 q=-0.0 size=N/A time=00:08:33.09 bitrate=N/A speed=19.1x    frame=12496 fps=457 q=-0.0 size=N/A time=00:08:41.18 bitrate=N/A speed=19.1x    frame=12749 fps=457 q=-0.0 size=N/A time=00:08:51.73 bitrate=N/A speed=19.1x    frame=12969 fps=457 q=-0.0 size=N/A time=00:09:00.91 bitrate=N/A speed=19.1x    frame=13192 fps=457 q=-0.0 size=N/A time=00:09:10.21 bitrate=N/A speed=  19x    frame=13403 fps=456 q=-0.0 size=N/A time=00:09:19.01 bitrate=N/A speed=  19x    frame=13627 fps=455 q=-0.0 size=N/A time=00:09:28.35 bitrate=N/A speed=  19x    frame=13846 fps=455 q=-0.0 size=N/A time=00:09:37.49 bitrate=N/A speed=  19x    frame=14078 fps=455 q=-0.0 size=N/A time=00:09:47.16 bitrate=N/A speed=  19x    frame=14311 fps=455 q=-0.0 size=N/A time=00:09:56.88 bitrate=N/A speed=  19x    frame=14528 fps=454 q=-0.0 size=N/A time=00:10:05.93 bitrate=N/A speed=18.9x    frame=14739 fps=454 q=-0.0 size=N/A time=00:10:14.73 bitrate=N/A speed=18.9x    frame=14943 fps=453 q=-0.0 size=N/A time=00:10:23.24 bitrate=N/A speed=18.9x    frame=15176 fps=453 q=-0.0 size=N/A time=00:10:32.96 bitrate=N/A speed=18.9x    frame=15413 fps=453 q=-0.0 size=N/A time=00:10:42.85 bitrate=N/A speed=18.9x    frame=15633 fps=452 q=-0.0 size=N/A time=00:10:52.02 bitrate=N/A speed=18.9x    frame=15841 fps=452 q=-0.0 size=N/A time=00:11:00.70 bitrate=N/A speed=18.8x    frame=16082 fps=452 q=-0.0 size=N/A time=00:11:10.75 bitrate=N/A speed=18.8x    frame=16362 fps=453 q=-0.0 size=N/A time=00:11:22.43 bitrate=N/A speed=18.9x    frame=16626 fps=454 q=-0.0 size=N/A time=00:11:33.44 bitrate=N/A speed=18.9x    frame=16871 fps=454 q=-0.0 size=N/A time=00:11:43.66 bitrate=N/A speed=18.9x    frame=17129 fps=455 q=-0.0 size=N/A time=00:11:54.42 bitrate=N/A speed=  19x    frame=17369 fps=455 q=-0.0 size=N/A time=00:12:04.43 bitrate=N/A speed=  19x    frame=17616 fps=455 q=-0.0 size=N/A time=00:12:14.73 bitrate=N/A speed=  19x    frame=17890 fps=456 q=-0.0 size=N/A time=00:12:26.16 bitrate=N/A speed=  19x    frame=18134 fps=456 q=-0.0 size=N/A time=00:12:36.33 bitrate=N/A speed=  19x    frame=18381 fps=457 q=-0.0 size=N/A time=00:12:46.64 bitrate=N/A speed=19.1x    frame=18610 fps=457 q=-0.0 size=N/A time=00:12:56.19 bitrate=N/A speed=  19x    frame=18821 fps=456 q=-0.0 size=N/A time=00:13:04.99 bitrate=N/A speed=  19x    frame=19023 fps=455 q=-0.0 size=N/A time=00:13:13.41 bitrate=N/A speed=  19x    frame=19239 fps=455 q=-0.0 size=N/A time=00:13:22.42 bitrate=N/A speed=  19x    frame=19454 fps=454 q=-0.0 size=N/A time=00:13:31.39 bitrate=N/A speed=  19x    frame=19676 fps=454 q=-0.0 size=N/A time=00:13:40.65 bitrate=N/A speed=18.9x    frame=19931 fps=455 q=-0.0 size=N/A time=00:13:51.28 bitrate=N/A speed=  19x    frame=20189 fps=455 q=-0.0 size=N/A time=00:14:02.04 bitrate=N/A speed=  19x    frame=20450 fps=456 q=-0.0 size=N/A time=00:14:12.93 bitrate=N/A speed=  19x    frame=20693 fps=456 q=-0.0 size=N/A time=00:14:23.07 bitrate=N/A speed=  19x    frame=20959 fps=457 q=-0.0 size=N/A time=00:14:34.16 bitrate=N/A speed=  19x    frame=21223 fps=457 q=-0.0 size=N/A time=00:14:45.17 bitrate=N/A speed=19.1x    frame=21470 fps=457 q=-0.0 size=N/A time=00:14:55.47 bitrate=N/A speed=19.1x    frame=21730 fps=458 q=-0.0 size=N/A time=00:15:06.32 bitrate=N/A speed=19.1x    frame=21965 fps=458 q=-0.0 size=N/A time=00:15:16.12 bitrate=N/A speed=19.1x    frame=22223 fps=458 q=-0.0 size=N/A time=00:15:26.88 bitrate=N/A speed=19.1x    frame=22484 fps=459 q=-0.0 size=N/A time=00:15:37.77 bitrate=N/A speed=19.1x    frame=22758 fps=460 q=-0.0 size=N/A time=00:15:49.19 bitrate=N/A speed=19.2x    frame=23030 fps=460 q=-0.0 size=N/A time=00:16:00.54 bitrate=N/A speed=19.2x    frame=23293 fps=461 q=-0.0 size=N/A time=00:16:11.51 bitrate=N/A speed=19.2x    frame=23547 fps=461 q=-0.0 size=N/A time=00:16:22.10 bitrate=N/A speed=19.2x    frame=23785 fps=461 q=-0.0 size=N/A time=00:16:32.03 bitrate=N/A speed=19.2x    frame=23997 fps=461 q=-0.0 size=N/A time=00:16:40.87 bitrate=N/A speed=19.2x    frame=24186 fps=460 q=-0.0 size=N/A time=00:16:48.75 bitrate=N/A speed=19.2x    frame=24436 fps=460 q=-0.0 size=N/A time=00:16:59.18 bitrate=N/A speed=19.2x    frame=24677 fps=460 q=-0.0 size=N/A time=00:17:09.23 bitrate=N/A speed=19.2x    frame=24924 fps=460 q=-0.0 size=N/A time=00:17:19.53 bitrate=N/A speed=19.2x    frame=25177 fps=460 q=-0.0 size=N/A time=00:17:30.09 bitrate=N/A speed=19.2x    frame=25447 fps=461 q=-0.0 size=N/A time=00:17:41.35 bitrate=N/A speed=19.2x    frame=25682 fps=461 q=-0.0 size=N/A time=00:17:51.15 bitrate=N/A speed=19.2x    frame=25932 fps=461 q=-0.0 size=N/A time=00:18:01.58 bitrate=N/A speed=19.2x    frame=26196 fps=462 q=-0.0 size=N/A time=00:18:12.59 bitrate=N/A speed=19.3x    frame=26430 fps=462 q=-0.0 size=N/A time=00:18:22.35 bitrate=N/A speed=19.3x    frame=26702 fps=462 q=-0.0 size=N/A time=00:18:33.69 bitrate=N/A speed=19.3x    frame=26954 fps=462 q=-0.0 size=N/A time=00:18:44.20 bitrate=N/A speed=19.3x    frame=27203 fps=463 q=-0.0 size=N/A time=00:18:54.59 bitrate=N/A speed=19.3x    frame=27466 fps=463 q=-0.0 size=N/A time=00:19:05.56 bitrate=N/A speed=19.3x    frame=27715 fps=463 q=-0.0 size=N/A time=00:19:15.94 bitrate=N/A speed=19.3x    frame=27974 fps=464 q=-0.0 size=N/A time=00:19:26.74 bitrate=N/A speed=19.3x    frame=28253 fps=464 q=-0.0 size=N/A time=00:19:38.38 bitrate=N/A speed=19.4x    frame=28530 fps=465 q=-0.0 size=N/A time=00:19:49.93 bitrate=N/A speed=19.4x    frame=28768 fps=465 q=-0.0 size=N/A time=00:19:59.86 bitrate=N/A speed=19.4x    frame=28986 fps=464 q=-0.0 size=N/A time=00:20:08.95 bitrate=N/A speed=19.4x    frame=29246 fps=465 q=-0.0 size=N/A time=00:20:19.80 bitrate=N/A speed=19.4x    frame=29500 fps=465 q=-0.0 size=N/A time=00:20:30.39 bitrate=N/A speed=19.4x    frame=29762 fps=465 q=-0.0 size=N/A time=00:20:41.32 bitrate=N/A speed=19.4x    frame=29983 fps=465 q=-0.0 size=N/A time=00:20:50.54 bitrate=N/A speed=19.4x    frame=30221 fps=465 q=-0.0 size=N/A time=00:21:00.46 bitrate=N/A speed=19.4x    frame=30478 fps=465 q=-0.0 size=N/A time=00:21:11.18 bitrate=N/A speed=19.4x    frame=30744 fps=466 q=-0.0 size=N/A time=00:21:22.28 bitrate=N/A speed=19.4x    frame=30995 fps=466 q=-0.0 size=N/A time=00:21:32.74 bitrate=N/A speed=19.4x    frame=31208 fps=465 q=-0.0 size=N/A time=00:21:41.63 bitrate=N/A speed=19.4x    frame=31449 fps=465 q=-0.0 size=N/A time=00:21:51.68 bitrate=N/A speed=19.4x    frame=31709 fps=466 q=-0.0 size=N/A time=00:22:02.52 bitrate=N/A speed=19.4x    frame=31935 fps=465 q=-0.0 size=N/A time=00:22:11.95 bitrate=N/A speed=19.4x    frame=32152 fps=465 q=-0.0 size=N/A time=00:22:21.00 bitrate=N/A speed=19.4x    frame=32377 fps=465 q=-0.0 size=N/A time=00:22:30.39 bitrate=N/A speed=19.4x    frame=32600 fps=465 q=-0.0 size=N/A time=00:22:39.69 bitrate=N/A speed=19.4x    frame=32855 fps=465 q=-0.0 size=N/A time=00:22:50.32 bitrate=N/A speed=19.4x    frame=33116 fps=465 q=-0.0 size=N/A time=00:23:01.21 bitrate=N/A speed=19.4x    frame=33350 fps=465 q=-0.0 size=N/A time=00:23:10.97 bitrate=N/A speed=19.4x    frame=33554 fps=465 q=-0.0 size=N/A time=00:23:19.48 bitrate=N/A speed=19.4x    frame=33804 fps=465 q=-0.0 size=N/A time=00:23:29.90 bitrate=N/A speed=19.4x    frame=34025 fps=465 q=-0.0 size=N/A time=00:23:39.12 bitrate=N/A speed=19.4x    [Parsed_ssim_10 @ 0000021834406400] SSIM Y:0.994967 (22.981428) U:0.993620 (21.951708) V:0.993566 (21.915404) All:0.994509 (22.603326)
[out#0/null @ 00000218342b5e00] video:14696KiB audio:267500KiB subtitle:0KiB other streams:0KiB global headers:0KiB muxing overhead: unknown
frame=34202 fps=465 q=-0.0 Lsize=N/A time=00:23:46.50 bitrate=N/A speed=19.4x    
